<?xml version="1.0" encoding="UTF-8" standalone="no"?>
<svg
   xmlns:dc="http://purl.org/dc/elements/1.1/"
   xmlns:cc="http://creativecommons.org/ns#"
   xmlns:rdf="http://www.w3.org/1999/02/22-rdf-syntax-ns#"
   xmlns:svg="http://www.w3.org/2000/svg"
   xmlns="http://www.w3.org/2000/svg"
   xmlns:sodipodi="http://sodipodi.sourceforge.net/DTD/sodipodi-0.dtd"
   xmlns:inkscape="http://www.inkscape.org/namespaces/inkscape"
   id="svg8"
   version="1.1"
   viewBox="0 0 200 200.00001"
   height="200mm"
   width="200mm"
   sodipodi:docname="heron_logo.svg"
   inkscape:version="0.92.2 (5c3e80d, 2017-08-06)">
  <sodipodi:namedview
     pagecolor="#ffffff"
     bordercolor="#666666"
     borderopacity="1"
     objecttolerance="10"
     gridtolerance="10"
     guidetolerance="10"
     inkscape:pageopacity="0"
     inkscape:pageshadow="2"
     inkscape:window-width="1920"
     inkscape:window-height="2096"
     id="namedview20"
     showgrid="false"
     inkscape:zoom="0.88305852"
     inkscape:cx="680.47806"
     inkscape:cy="393.95863"
     inkscape:window-x="0"
     inkscape:window-y="27"
     inkscape:window-maximized="0"
     inkscape:current-layer="svg8" />
  <defs
     id="defs2" />
  <path
     inkscape:connector-curvature="0"
     style="fill:#333333;stroke:#000000;stroke-width:0.48187929px;stroke-linecap:butt;stroke-linejoin:miter;stroke-opacity:1"
     d="m 129.55334,88.29353 c 2.16527,1.155693 6.85531,6.216234 14.02877,12.03565 2.94378,2.38813 7.71795,5.28345 10.5206,7.7814 4.24511,3.78359 8.31866,8.55028 3.39869,6.72071 3.79643,3.97783 -1.74145,3.34128 -1.98303,2.91646 5.69998,6.00038 -1.98393,6.34446 -15.40861,-5.9029"
     id="path854-9" />
  <path
     inkscape:connector-curvature="0"
     style="fill:#000000;stroke:#000000;stroke-width:0.48187929px;stroke-linecap:butt;stroke-linejoin:miter;stroke-opacity:1"
     d="m 90.560659,109.70729 c 0.962679,5.11408 3.209041,7.8461 4.440473,11.04825 0.223462,0.58108 0.883964,4.49484 1.263662,8.98468 0.502561,5.94274 -0.06557,5.88908 -0.03918,8.4377 0.0293,2.83524 0.568965,4.43627 -1.159912,14.369 l 2.513612,-0.005 c 2.191452,-14.59104 2.696276,-10.78873 2.909696,-14.53026 0.15699,-2.75374 -0.720955,-3.04893 -1.623782,-8.48183 -0.714106,-4.29731 -1.323212,-8.42361 -1.307097,-8.65187 0.206807,-2.93007 0.76732,-3.78905 0.193141,-8.57034 -2.346509,-0.6546 -4.585442,-1.31807 -7.190617,-2.59986 z"
     id="path856-2" />
  <path
     inkscape:connector-curvature="0"
     style="fill:#cccccc;stroke:#000000;stroke-width:0.48187929px;stroke-linecap:butt;stroke-linejoin:miter;stroke-opacity:1"
     d="m 140.10976,111.84485 c 0.0263,0.0235 4.43568,4.12794 8.89872,6.98415 0.59451,0.38048 2.04155,1.87769 0.31626,1.77178 -1.85133,-0.11364 -7.43751,-1.30762 -11.35791,-2.2433 -9.30408,-2.22057 -18.48388,-4.86605 -29.92271,-4.95566 l -6.76313,-0.3082 C 84.548633,109.95903 81.526254,102.10323 73.91428,93.258019 67.393262,85.680507 60.178943,83.680254 53.644412,67.823553 52.021331,63.884974 48.887049,53.388007 55.592813,48.614772 c 5.735259,-4.08242 4.302355,-8.372245 3.13175,-10.73314 C 57.261882,34.93168 53.129244,35.834334 47.750658,35.100221 43.717917,34.5498 34.949875,34.300473 33.115826,33.105811 l 9.005045,-5.941839 c 1.048081,-1.846328 3.7076,-1.59385 6.223614,-2.870807 8.5767,-4.352945 14.207703,0.126542 17.615779,5.224803 l -1.278381,-0.479757 c 3.649845,3.908435 7.570775,16.570404 0.786667,22.48054 -6.550516,5.706637 -4.636233,16.168622 5.844539,20.591982 0.327526,0.138235 1.538997,0.436258 2.144296,-1.50408"
     id="path852-6" />
  <path
     inkscape:connector-curvature="0"
     style="fill:#808080;stroke:#000000;stroke-width:0.48187929px;stroke-linecap:butt;stroke-linejoin:miter;stroke-opacity:1"
     d="m 103.02364,71.493119 c 26.50842,10.502646 39.46969,28.723381 36.80149,41.779441 -0.5425,2.37857 -30.81211,-4.46892 -41.741936,-9.73673 C 82.256215,95.907767 73.111523,81.496096 73.457385,70.606653 c 3.77821,-10.747619 11.721756,-6.183539 29.566255,0.886466 z"
     id="path834-4" />
  <path
     inkscape:connector-curvature="0"
     style="fill:#000000;stroke:#000000;stroke-width:0.48187929px;stroke-linecap:butt;stroke-linejoin:miter;stroke-opacity:1"
     d="m 98.251216,103.63435 c -0.810503,3.39276 0.421576,5.73124 2.294634,8.37855 1.6107,2.27651 3.2022,5.30795 4.90732,7.17827 0.75856,0.83205 1.37071,4.68301 2.72976,8.68354 2.12126,6.24408 0.94126,6.03168 1.00923,9.29958 0.0508,2.44281 1.68965,2.30267 2.05123,15.29234 l 2.50793,0.0413 c -1.1591,-14.06339 0.37875,-14.37155 -0.16664,-16.64652 -0.59567,-2.48444 -1.45411,-2.47878 -2.73906,-7.64845 -1.16774,-4.69808 -2.41038,-8.25049 -2.41756,-8.28604 -0.42971,-2.12957 -0.93637,-4.10984 -0.63415,-5.82926 0.33832,-1.92483 1.96291,-3.54865 0.73626,-6.67328 -3.71613,-1.18485 -6.79376,-2.18899 -10.278954,-3.79008 z"
     id="path848-1" />
  <path
     inkscape:connector-curvature="0"
     style="fill:#ffffff;stroke:#000000;stroke-width:0.48263818;stroke-linecap:butt;stroke-linejoin:miter;stroke-miterlimit:4;stroke-dasharray:none;stroke-opacity:1"
     d="M 44.444219,32.929316 C 35.580703,32.90289 26.6079,33.53219 17.854803,32.843261 c -0.02289,-2.505291 16.177378,-3.786193 24.266068,-5.679289 3.971073,-0.156302 5.33701,0.804172 7.486336,-0.301177 -1.542095,2.087109 -0.171218,2.815653 1.807048,3.312921 -2.629123,0.435061 -6.323237,-0.811442 -6.970036,2.753602 z"
     id="path826-9" />
  <path
     inkscape:connector-curvature="0"
     style="fill:none;stroke:#000000;stroke-width:0.48187929px;stroke-linecap:butt;stroke-linejoin:miter;stroke-opacity:1"
     d="m 48.819214,30.282527 c -7.652569,-0.24066 -30.3801,2.137154 -30.964411,2.560729"
     id="path879-0" />
  <path
     inkscape:connector-curvature="0"
     style="fill:#666666;stroke:#000000;stroke-width:0.48187929px;stroke-linecap:butt;stroke-linejoin:miter;stroke-opacity:1"
     d="m 49.43961,28.088785 c 0.07813,-0.806478 0.719996,-1.501637 1.546656,-1.506423 0.826658,-0.0047 1.533588,0.766894 1.550529,1.457152 0.01694,0.690256 -0.471612,1.302291 -1.361007,1.306824 -0.889391,0.0046 -1.814315,-0.451072 -1.736178,-1.257553 z"
     id="path953-5" />
  <path
     inkscape:connector-curvature="0"
     style="fill:#000000;stroke:#000000;stroke-width:0.48187929px;stroke-linecap:butt;stroke-linejoin:miter;stroke-opacity:1"
     d="m 48.746711,25.22785 c 2.672954,-0.225267 2.950806,0.761615 3.893378,1.240381 2.503927,1.27184 3.886551,1.476728 8.282683,-0.638031 7.888849,5.131553 10.908234,15.969272 10.627158,21.469446 C 71.79894,32.88018 61.426583,18.600499 48.746711,25.22785 Z"
     id="path828-6" />
  <path
     inkscape:connector-curvature="0"
     id="path867"
     style="font-style:normal;font-variant:normal;font-weight:500;font-stretch:normal;font-size:42.61766434px;line-height:1.25;font-family:Roboto;-inkscape-font-specification:'Roboto Medium';letter-spacing:0px;word-spacing:0px;fill:#1a1a1a;fill-opacity:1;stroke:none;stroke-width:0.75178754"
     d="m 81.851675,177.38104 h -5.24397 V 163.91736 H 63.060781 v 13.46368 h -5.264779 v -30.29849 h 5.264779 v 12.6105 h 13.546924 v -12.6105 h 5.24397 z" />
  <path
     inkscape:connector-curvature="0"
     id="path869"
     style="font-style:normal;font-variant:normal;font-weight:500;font-stretch:normal;font-size:33.14707565px;line-height:1.25;font-family:Roboto;-inkscape-font-specification:'Roboto Medium';letter-spacing:0px;word-spacing:0px;fill:#1a1a1a;fill-opacity:1;stroke:none;stroke-width:0.75178754"
     d="m 101.18362,166.86073 h -9.678691 v 7.25092 h 11.313381 v 3.26939 H 87.4101 v -23.5655 h 15.29492 v 3.30176 H 91.504929 v 6.50641 h 9.678691 z" />
  <path
     inkscape:connector-curvature="0"
     id="path871"
     style="font-style:normal;font-variant:normal;font-weight:500;font-stretch:normal;font-size:33.14707565px;line-height:1.25;font-family:Roboto;-inkscape-font-specification:'Roboto Medium';letter-spacing:0px;word-spacing:0px;fill:#1a1a1a;fill-opacity:1;stroke:none;stroke-width:0.75178754"
     d="m 114.84384,168.3012 h -4.5642 v 9.07984 h -4.09483 v -23.5655 h 8.28677 q 4.07864,0 6.296,1.82892 2.21736,1.82891 2.21736,5.29253 0,2.36302 -1.14914,3.96534 -1.13296,1.58614 -3.17228,2.44395 l 5.29253,9.82436 v 0.2104 h -4.38616 z m -4.5642,-3.28557 h 4.20813 q 2.07169,0 3.23701,-1.03585 1.16533,-1.05203 1.16533,-2.86476 0,-1.89365 -1.0844,-2.9295 -1.06822,-1.03585 -3.20465,-1.06822 h -4.32142 z" />
  <path
     inkscape:connector-curvature="0"
     id="path873"
     style="font-style:normal;font-variant:normal;font-weight:500;font-stretch:normal;font-size:33.14707565px;line-height:1.25;font-family:Roboto;-inkscape-font-specification:'Roboto Medium';letter-spacing:0px;word-spacing:0px;fill:#1a1a1a;fill-opacity:1;stroke:none;stroke-width:0.75178754"
     d="m 145.70882,166.21333 q 0,3.46361 -1.1977,6.08559 -1.1977,2.6058 -3.43124,4.01391 -2.21736,1.39191 -5.11449,1.39191 -2.86476,0 -5.11449,-1.39191 -2.23355,-1.40811 -3.46361,-3.99772 -1.21389,-2.58962 -1.23007,-5.9723 v -1.32718 q 0,-3.44743 1.21388,-6.0856 1.23007,-2.63817 3.44743,-4.03009 2.23354,-1.4081 5.11449,-1.4081 2.88094,0 5.0983,1.39192 2.23355,1.37573 3.44743,3.98153 1.21388,2.58962 1.23007,6.03704 z m -4.09483,-1.23007 q 0,-3.91679 -1.48903,-6.00467 -1.47285,-2.08788 -4.19194,-2.08788 -2.65436,0 -4.15957,2.08788 -1.48903,2.07169 -1.5214,5.87519 v 1.35955 q 0,3.88442 1.50521,6.00467 1.5214,2.12024 4.20813,2.12024 2.71909,0 4.17575,-2.07169 1.47285,-2.07169 1.47285,-6.05322 z" />
  <path
     inkscape:connector-curvature="0"
     id="path875"
     style="font-style:normal;font-variant:normal;font-weight:500;font-stretch:normal;font-size:33.14707565px;line-height:1.25;font-family:Roboto;-inkscape-font-specification:'Roboto Medium';letter-spacing:0px;word-spacing:0px;fill:#1a1a1a;fill-opacity:1;stroke:none;stroke-width:0.75178754"
     d="m 168.51361,177.38104 h -4.09483 l -10.50413,-16.7192 v 16.7192 h -4.09483 v -23.5655 h 4.09483 l 10.5365,16.78395 v -16.78395 h 4.06246 z" />
</svg>
