<?xml version="1.0" encoding="UTF-8" standalone="no"?>
<!-- Created with Inkscape (http://www.inkscape.org/) -->

<svg
   xmlns:dc="http://purl.org/dc/elements/1.1/"
   xmlns:cc="http://creativecommons.org/ns#"
   xmlns:rdf="http://www.w3.org/1999/02/22-rdf-syntax-ns#"
   xmlns:svg="http://www.w3.org/2000/svg"
   xmlns="http://www.w3.org/2000/svg"
   xmlns:sodipodi="http://sodipodi.sourceforge.net/DTD/sodipodi-0.dtd"
   xmlns:inkscape="http://www.inkscape.org/namespaces/inkscape"
   width="200mm"
   height="200mm"
   viewBox="0 0 200 200.00001"
   version="1.1"
   id="svg8"
   sodipodi:docname="heron_logo.svg"
   inkscape:version="0.92.2 (5c3e80d, 2017-08-06)">
  <defs
     id="defs2" />
  <sodipodi:namedview
     id="base"
     pagecolor="#ffffff"
     bordercolor="#666666"
     borderopacity="1.0"
     inkscape:pageopacity="0.0"
     inkscape:pageshadow="2"
     inkscape:zoom="1"
     inkscape:cx="232.23442"
     inkscape:cy="-18.628518"
     inkscape:document-units="mm"
     inkscape:current-layer="layer1"
     showgrid="false"
     inkscape:window-width="3840"
     inkscape:window-height="2096"
     inkscape:window-x="0"
     inkscape:window-y="27"
     inkscape:window-maximized="1"
     fit-margin-top="0"
     fit-margin-left="0"
     fit-margin-right="0"
     fit-margin-bottom="0" />
  <metadata
     id="metadata5">
    <rdf:RDF>
      <cc:Work
         rdf:about="">
        <dc:format>image/svg+xml</dc:format>
        <dc:type
           rdf:resource="http://purl.org/dc/dcmitype/StillImage" />
        <dc:title></dc:title>
      </cc:Work>
    </rdf:RDF>
  </metadata>
  <g
     inkscape:label="Layer 1"
     inkscape:groupmode="layer"
     id="layer1"
     transform="translate(-96.809767,194.94549)">
    <g
       id="g1881"
       transform="matrix(1.2460888,0,0,1.2460888,-6.2103431,-23.539114)">
      <g
         transform="matrix(1.4615942,0,0,1.4615942,49.209,-42.003515)"
         id="g1015">
        <path
           style="fill:#333333;stroke:#000000;stroke-width:0.26458332px;stroke-linecap:butt;stroke-linejoin:miter;stroke-opacity:1"
           d="m 94.030033,-16.896251 c 1.188879,0.634551 3.764018,3.41312 7.702717,6.608361 1.61633,1.31124 4.23766,2.90096 5.7765,4.272499 2.33084,2.07744 4.56749,4.694661 1.8661,3.69011 2.08449,2.18408997 -0.95617,1.83458097 -1.08881,1.60132897 C 111.4162,2.570648 107.19723,2.759568 99.826202,-3.965031"
           id="path854-9"
           inkscape:connector-curvature="0"
           sodipodi:nodetypes="cssccc" />
        <path
           style="fill:#000000;stroke:#000000;stroke-width:0.26458332px;stroke-linecap:butt;stroke-linejoin:miter;stroke-opacity:1"
           d="m 72.620498,-5.1386909 c 0.528574,2.80796 1.761974,4.30801987 2.438111,6.06620987 0.122695,0.31905103 0.485354,2.46796003 0.693833,4.93318003 0.275939,3.262951 -0.036,3.233489 -0.02151,4.632849 0.01609,1.556732 0.312399,2.435802 -0.636868,7.889521 l 1.380138,-0.003 C 77.677453,10.368628 77.954633,12.45635 78.071812,10.402 78.158012,8.89002 77.675964,8.727939 77.180253,5.744921 76.788162,3.38542 76.453723,1.119808 76.462571,0.99448097 c 0.113551,-1.608802 0.421309,-2.08044187 0.106047,-4.70568287 -1.288387,-0.3594183 -2.517708,-0.7237055 -3.94812,-1.427489 z"
           id="path856-2"
           inkscape:connector-curvature="0"
           sodipodi:nodetypes="csssccssscc" />
        <path
           style="fill:#cccccc;stroke:#000000;stroke-width:0.26458332px;stroke-linecap:butt;stroke-linejoin:miter;stroke-opacity:1"
           d="m 99.826202,-3.965031 c 0.01444,0.012876 2.435478,2.2665092 4.885978,3.83475232 0.32643,0.20890841 1.12095,1.03097796 0.17365,0.97282665 -1.0165,-0.0623993 -4.08368,-0.717968 -6.236238,-1.23172 C 93.541043,-1.608411 88.500731,-3.060952 82.220062,-3.110152 l -3.713399,-0.169223 c -9.187161,-1.721099 -10.846645,-6.034447 -15.026118,-10.891046 -3.580466,-4.160551 -7.5416,-5.258821 -11.129486,-13.965189 -0.891178,-2.162538 -2.612104,-7.926061 1.0698,-10.54688 3.149033,-2.241516 2.362275,-4.596911 1.719536,-5.893197 -0.803108,-1.619717 -3.072197,-1.124101 -6.025393,-1.527177 -2.214239,-0.302217 -7.028469,-0.439114 -8.035482,-1.095062 l 4.94436,-3.262459 c 0.575465,-1.013755 2.035715,-0.875128 3.417172,-1.576261 4.70917,-2.390052 7.80096,0.06948 9.672217,2.868759 l -0.701915,-0.263418 c 2.004004,2.145987 4.156852,9.098238 0.431932,12.34329 -3.596663,3.133318 -2.545596,8.877633 3.209035,11.306348 0.179833,0.0759 0.84501,0.239534 1.177359,-0.825839"
           id="path852-6"
           inkscape:connector-curvature="0"
           sodipodi:nodetypes="csszccsssssccsccscc" />
        <path
           inkscape:connector-curvature="0"
           style="fill:#808080;stroke:#000000;stroke-width:0.26458332px;stroke-linecap:butt;stroke-linejoin:miter;stroke-opacity:1"
           d="m 79.463493,-26.120778 c 14.554859,5.766641 21.671447,15.771021 20.20643,22.93965 -0.297871,1.305992 -16.917871,-2.45373 -22.91906,-5.346099 -8.690049,-4.188309 -13.711084,-12.101261 -13.521183,-18.080279 2.074485,-5.901147 6.436012,-3.395168 16.233813,0.486728 z"
           id="path834-4" />
        <path
           style="fill:#000000;stroke:#000000;stroke-width:0.26458332px;stroke-linecap:butt;stroke-linejoin:miter;stroke-opacity:1"
           d="m 76.843118,-8.4731347 c -0.445019,1.862849 0.231473,3.1468247 1.259903,4.6003737 0.884381,1.24995 1.75822,2.91440997 2.69444,3.94133997 0.416502,0.45685 0.75261,2.57128103 1.49882,4.76783103 1.164711,3.42841 0.51681,3.31179 0.55413,5.10608 0.0279,1.34126 0.927732,1.264319 1.12626,8.396499 l 1.377021,0.0227 c -0.636421,-7.721721 0.20796,-7.89092 -0.0915,-9.140031 C 84.935133,7.857538 84.463793,7.860649 83.758274,5.022157 83.117104,2.442607 82.434812,0.49209897 82.430873,0.47257797 82.194933,-0.69669303 81.916742,-1.783993 82.082684,-2.728063 82.268442,-3.784923 83.16045,-4.6765053 82.486939,-6.3921353 80.446541,-7.042692 78.756716,-7.59403 76.843118,-8.4731347 Z"
           id="path848-1"
           inkscape:connector-curvature="0"
           sodipodi:nodetypes="cssssccsssscc" />
        <path
           style="fill:#ffffff;stroke:#000000;stroke-width:0.26499999;stroke-linecap:butt;stroke-linejoin:miter;stroke-miterlimit:4;stroke-dasharray:none;stroke-opacity:1"
           d="m 47.29955,-47.294833 c -4.866651,-0.01451 -9.793308,0.331017 -14.599332,-0.04725 -0.01257,-1.375569 8.882441,-2.078868 13.323662,-3.118302 2.180379,-0.08582 2.930368,0.441543 4.110489,-0.165366 -0.846711,1.14596 -0.09401,1.545978 0.992188,1.819011 -1.443561,0.238877 -3.471872,-0.445535 -3.827007,1.511908 z"
           id="path826-9"
           inkscape:connector-curvature="0"
           sodipodi:nodetypes="cccccc" />
        <path
           style="fill:none;stroke:#000000;stroke-width:0.26458332px;stroke-linecap:butt;stroke-linejoin:miter;stroke-opacity:1"
           d="m 49.701709,-48.748094 c -4.201762,-0.132138 -16.680666,1.173438 -17.001491,1.406008"
           id="path879-0"
           inkscape:connector-curvature="0"
           sodipodi:nodetypes="cc" />
        <path
           style="fill:#666666;stroke:#000000;stroke-width:0.26458332px;stroke-linecap:butt;stroke-linejoin:miter;stroke-opacity:1"
           d="m 50.042347,-49.952602 c 0.0429,-0.442809 0.395325,-0.824497 0.849216,-0.827125 0.453889,-0.0026 0.84204,0.421075 0.851342,0.800072 0.0093,0.378996 -0.258946,0.715043 -0.747282,0.717532 -0.488334,0.0025 -0.996178,-0.247668 -0.953276,-0.690479 z"
           id="path953-5"
           inkscape:connector-curvature="0"
           sodipodi:nodetypes="zzzzz" />
        <path
           style="fill:#000000;stroke:#000000;stroke-width:0.26458332px;stroke-linecap:butt;stroke-linejoin:miter;stroke-opacity:1"
           d="m 49.6619,-51.523443 c 1.467627,-0.123686 1.620186,0.418177 2.13772,0.681051 1.37482,0.698323 2.133971,0.81082 4.547736,-0.350321 4.331495,2.817559 5.989335,8.768177 5.835006,11.788133 0.136723,-7.917232 -5.558381,-15.757713 -12.520462,-12.118863 z"
           id="path828-6"
           inkscape:connector-curvature="0"
           sodipodi:nodetypes="csccc" />
      </g>
      <text
         id="text1305-6-1-5-0-0"
         y="4.7947373"
         x="126.58514"
         style="font-style:normal;font-weight:normal;font-size:32.05908966px;line-height:1.25;font-family:sans-serif;letter-spacing:0px;word-spacing:0px;fill:#1a1a1a;fill-opacity:1;stroke:none;stroke-width:0.6033178"
         xml:space="preserve"><tspan
           style="font-style:normal;font-variant:normal;font-weight:500;font-stretch:normal;font-family:Roboto;-inkscape-font-specification:'Roboto Medium';fill:#1a1a1a;stroke-width:0.6033178"
           y="4.7947373"
           x="126.58514"
           id="tspan1303-4-4-1-2-4"
           sodipodi:role="line"><tspan
             id="tspan875-4-3-3-0"
             style="font-style:normal;font-variant:normal;font-weight:500;font-stretch:normal;font-size:34.20114517px;font-family:Roboto;-inkscape-font-specification:'Roboto Medium';fill:#1a1a1a;stroke-width:0.6033178">H</tspan><tspan
             id="tspan873-5-9-1-4"
             style="font-style:normal;font-variant:normal;font-weight:500;font-stretch:normal;font-size:26.60089302px;font-family:Roboto;-inkscape-font-specification:'Roboto Medium';fill:#1a1a1a;stroke-width:0.6033178">ERON</tspan></tspan></text>
    </g>
  </g>
</svg>
