<?xml version="1.0" encoding="UTF-8" standalone="no"?>
<!-- Created with Inkscape (http://www.inkscape.org/) -->

<svg
   xmlns:dc="http://purl.org/dc/elements/1.1/"
   xmlns:cc="http://creativecommons.org/ns#"
   xmlns:rdf="http://www.w3.org/1999/02/22-rdf-syntax-ns#"
   xmlns:svg="http://www.w3.org/2000/svg"
   xmlns="http://www.w3.org/2000/svg"
   xmlns:sodipodi="http://sodipodi.sourceforge.net/DTD/sodipodi-0.dtd"
   xmlns:inkscape="http://www.inkscape.org/namespaces/inkscape"
   width="16"
   height="16"
   viewBox="0 0 4.2333333 4.2333334"
   version="1.1"
   id="svg4997"
   inkscape:version="0.92.2 (5c3e80d, 2017-08-06)"
   sodipodi:docname="db.svg">
  <defs
     id="defs4991">
    <marker
       inkscape:stockid="Arrow2Mend"
       orient="auto"
       refY="0"
       refX="0"
       id="Arrow2Mend-7-3-3-0-80-0-8-9-5-4-2-3-7-4-9-8-7-53"
       style="overflow:visible"
       inkscape:isstock="true">
      <path
         inkscape:connector-curvature="0"
         id="path2061-7-7-0-9-1-1-8-9-6-4-8-3-7-8-7-8-0-2"
         style="fill:#000000;fill-opacity:1;fill-rule:evenodd;stroke:#000000;stroke-width:0.625;stroke-linejoin:round;stroke-opacity:1"
         d="M 8.7185878,4.0337352 -2.2072895,0.01601326 8.7185884,-4.0017078 c -1.7454984,2.3720609 -1.7354408,5.6174519 -6e-7,8.035443 z"
         transform="scale(-0.6)" />
    </marker>
    <marker
       inkscape:stockid="Arrow2Mend"
       orient="auto"
       refY="0"
       refX="0"
       id="Arrow2Mend-7-3-3-0-80-0-8-9-5-4-2-3-7-4-9-8-2-16-1"
       style="overflow:visible"
       inkscape:isstock="true">
      <path
         inkscape:connector-curvature="0"
         id="path2061-7-7-0-9-1-1-8-9-6-4-8-3-7-8-7-8-5-6-8"
         style="fill:#000000;fill-opacity:1;fill-rule:evenodd;stroke:#000000;stroke-width:0.625;stroke-linejoin:round;stroke-opacity:1"
         d="M 8.7185878,4.0337352 -2.2072895,0.01601326 8.7185884,-4.0017078 c -1.7454984,2.3720609 -1.7354408,5.6174519 -6e-7,8.035443 z"
         transform="scale(-0.6)" />
    </marker>
  </defs>
  <sodipodi:namedview
     id="base"
     pagecolor="#ffffff"
     bordercolor="#666666"
     borderopacity="1.0"
     inkscape:pageopacity="0.0"
     inkscape:pageshadow="2"
     inkscape:zoom="31.678384"
     inkscape:cx="-1.8702694"
     inkscape:cy="20.133906"
     inkscape:document-units="mm"
     inkscape:current-layer="layer1"
     showgrid="false"
     fit-margin-top="0"
     fit-margin-left="0"
     fit-margin-right="0"
     fit-margin-bottom="0"
     inkscape:window-width="3840"
     inkscape:window-height="2096"
     inkscape:window-x="0"
     inkscape:window-y="27"
     inkscape:window-maximized="1"
     units="px" />
  <metadata
     id="metadata4994">
    <rdf:RDF>
      <cc:Work
         rdf:about="">
        <dc:format>image/svg+xml</dc:format>
        <dc:type
           rdf:resource="http://purl.org/dc/dcmitype/StillImage" />
        <dc:title></dc:title>
      </cc:Work>
    </rdf:RDF>
  </metadata>
  <g
     inkscape:label="Layer 1"
     inkscape:groupmode="layer"
     id="layer1"
     transform="translate(199.56876,-159.63578)">
    <g
       id="g1013"
       transform="translate(0.00563667,-0.0762832)">
      <path
         id="rect9826-4-4-1"
         d="m -198.98404,161.4206 v 0.002 a 1.5263318,0.2946397 0 0 1 4.2e-4,-0.002 z m 0,0.002 v 0.84288 h 3.05269 v -0.84429 h -2.8e-4 a 1.5263318,0.2946397 0 0 1 1.4e-4,5.5e-4 v 5.5e-4 a 1.5263318,0.2946397 0 0 1 -1.52557,0.29462 1.5263318,0.2946397 0 0 1 -1.52705,-0.29433 z"
         style="fill:#214478;fill-opacity:1;fill-rule:nonzero;stroke:#1a1a1a;stroke-width:0;stroke-linecap:round;stroke-linejoin:round;stroke-miterlimit:4;stroke-dasharray:none;stroke-dashoffset:0;stroke-opacity:1"
         inkscape:connector-curvature="0" />
      <path
         d="m -195.93139,161.19945 a 1.5263318,0.2946397 0 0 1 -1.52561,0.29464 1.5263318,0.2946397 0 0 1 -1.52705,-0.29436 1.5263318,0.2946397 0 0 1 1.52415,-0.29491 1.5263318,0.2946397 0 0 1 1.52851,0.29407"
         id="path9764-5-1-0-5"
         style="fill:#214478;fill-opacity:1;fill-rule:nonzero;stroke:#1a1a1a;stroke-width:0;stroke-linecap:round;stroke-linejoin:round;stroke-miterlimit:4;stroke-dasharray:none;stroke-dashoffset:0;stroke-opacity:1"
         inkscape:connector-curvature="0" />
      <path
         d="m -195.93139,163.3072 a 1.5263318,0.2946397 0 0 1 -1.52561,0.29464 1.5263318,0.2946397 0 0 1 -1.52705,-0.29436 1.5263318,0.2946397 0 0 1 1.52415,-0.29492 1.5263318,0.2946397 0 0 1 1.52851,0.29408"
         id="path9764-2-8-8-3"
         style="fill:#214478;fill-opacity:1;fill-rule:nonzero;stroke:#1a1a1a;stroke-width:0;stroke-linecap:round;stroke-linejoin:round;stroke-miterlimit:4;stroke-dasharray:none;stroke-dashoffset:0;stroke-opacity:1"
         inkscape:connector-curvature="0" />
      <path
         id="rect9826-5-8-2-5"
         d="m -198.98404,162.48688 v 8.3e-4 a 1.5263318,0.2946397 0 0 1 2.8e-4,-8.3e-4 z m 0,8.3e-4 v 0.84344 h 3.05269 v -0.84429 h -7e-5 v 5.5e-4 a 1.5263318,0.2946397 0 0 1 -1.52556,0.29461 1.5263318,0.2946397 0 0 1 -1.52706,-0.29432 z"
         style="fill:#214478;fill-opacity:1;fill-rule:nonzero;stroke:#1a1a1a;stroke-width:0;stroke-linecap:round;stroke-linejoin:round;stroke-miterlimit:4;stroke-dasharray:none;stroke-dashoffset:0;stroke-opacity:1"
         inkscape:connector-curvature="0" />
      <path
         d="m -195.93139,162.25734 a 1.5263318,0.2946397 0 0 1 -1.52561,0.29465 1.5263318,0.2946397 0 0 1 -1.52705,-0.29436 1.5263318,0.2946397 0 0 1 1.52415,-0.29493 1.5263318,0.2946397 0 0 1 1.52851,0.29408"
         id="path9764-1-9-8-6"
         style="fill:#214478;fill-opacity:1;fill-rule:nonzero;stroke:#1a1a1a;stroke-width:0;stroke-linecap:round;stroke-linejoin:round;stroke-miterlimit:4;stroke-dasharray:none;stroke-dashoffset:0;stroke-opacity:1"
         inkscape:connector-curvature="0" />
      <rect
         y="160.3497"
         x="-198.98407"
         height="0.84429133"
         width="3.0526638"
         id="rect9826-6-3-2-6"
         style="fill:#214478;fill-opacity:1;fill-rule:nonzero;stroke:#1a1a1a;stroke-width:0;stroke-linecap:round;stroke-linejoin:round;stroke-miterlimit:4;stroke-dasharray:none;stroke-dashoffset:0;stroke-opacity:1" />
      <path
         d="m -195.93139,160.35026 a 1.5263318,0.2946397 0 0 1 -1.52561,0.29464 1.5263318,0.2946397 0 0 1 -1.52705,-0.29436 1.5263318,0.2946397 0 0 1 1.52415,-0.29492 1.5263318,0.2946397 0 0 1 1.52851,0.29408"
         id="path9764-75-0-7"
         style="fill:#214478;fill-opacity:1;fill-rule:nonzero;stroke:#1a1a1a;stroke-width:0;stroke-linecap:round;stroke-linejoin:round;stroke-miterlimit:4;stroke-dasharray:none;stroke-dashoffset:0;stroke-opacity:1"
         inkscape:connector-curvature="0" />
    </g>
  </g>
</svg>
